<svg width="91" height="63" viewBox="0 0 91 63" fill="none" xmlns="http://www.w3.org/2000/svg">
<path fill-rule="evenodd" clip-rule="evenodd" d="M14.9648 0C7.23286 0 0.964844 6.26801 0.964844 14V49C0.964844 56.732 7.23288 63 14.9649 63H76.0338C83.7658 63 90.0338 56.732 90.0338 49V14C90.0338 6.26801 83.7658 0 76.0338 0H14.9648ZM38.7606 19.1592C39.7436 18.1896 39.7545 16.6067 38.7849 15.6237C37.8153 14.6407 36.2325 14.6299 35.2495 15.5994L20.9334 29.7201L19.1289 31.5L20.9334 33.2799L35.2495 47.4006C36.2325 48.3701 37.8153 48.3593 38.7849 47.3763C39.7545 46.3933 39.7436 44.8104 38.7606 43.8408L28.7837 34H70.4821C71.8628 34 72.9821 32.8807 72.9821 31.5C72.9821 30.1193 71.8628 29 70.4821 29H28.7837L38.7606 19.1592Z" fill="#9D9D9D"/>
</svg>
